# ProBuilder 6.0.8
# https://unity3d.com/unity/features/worldbuilding/probuilder
# 31/1/2569 19:27:13

mtllib ./Altar.mtl
o Altar

g Altar
v -0.3658018 -0.5743306 -0.3780693
v 0.3155153 -0.5743306 -0.3780693
v -0.02514327 -1.598998 -0.37807
v 0.3155153 -0.5743312 0.38807
v -0.02514327 -1.598999 0.3880693
v -0.3658018 -0.5743312 0.38807

vt -0.3797798 -0.8918533
vt 0.3772392 -0.8918533
vt -0.001270294 0.246666
vt -0.4256332 -0.9653198
vt 0.4256327 -0.9653198
vt -0.4256332 0.23447
vt 0.4256327 0.23447
vt -0.3772392 -0.8918533
vt 0.3797798 -0.8918533
vt 0.001270294 0.246666
vt -0.4256327 -0.9661213
vt 0.4256332 -0.9661213
vt -0.4256327 0.2336685
vt 0.4256332 0.2336685
vt -0.3797798 0.4256332
vt 0.3772392 0.4256332
vt -0.3797798 -0.4256327
vt 0.3772392 -0.4256327

vn 0 6.437301E-07 -0.9
vn 0.854039 -0.2839319 -2.030839E-07
vn 0 -6.437301E-07 0.9
vn -0.854039 -0.2839319 -2.030839E-07
vn 0 0.9 6.437301E-07

usemtl Mat_Grey
f 1/1/1 2/2/1 3/3/1
f 4/8/3 6/9/3 5/10/3
f 3/6/2 2/4/2 4/5/2
f 4/5/2 5/7/2 3/6/2
f 5/13/4 6/11/4 1/12/4
f 1/12/4 3/14/4 5/13/4
f 4/18/5 2/16/5 1/15/5
f 1/15/5 6/17/5 4/18/5

