# ProBuilder 4.4.0
# https://unity3d.com/unity/features/worldbuilding/probuilder
# 1/4/2568 17:54:25

mtllib ./Mesh_Temp_Key.mtl
o Mesh_Temp_Key

g Torus (1)
v -2.5 0 0
v -2.3125 0.2296397 -0.2296397
v -1.9375 0.2296396 -0.2296397
v -1.75 -2.318146E-08 2.318147E-08
v -1.9375 -0.2296397 0.2296397
v -2.3125 -0.2296397 0.2296397
v -1.875 -0.7654656 -0.7654655
v -1.78125 -0.4210061 -0.8802853
v -1.59375 -0.1913664 -0.6506456
v -1.5 -0.3061862 -0.3061861
v -1.59375 -0.6506457 -0.1913663
v -1.78125 -0.8802854 -0.421006
v -0.6249999 -0.7654656 -0.7654655
v -0.7187499 -0.4210061 -0.8802853
v -0.9062499 -0.1913664 -0.6506456
v -1 -0.3061862 -0.3061861
v -0.9062499 -0.6506457 -0.1913663
v -0.7187499 -0.8802854 -0.421006
v 0 7.727156E-08 7.727155E-08
v -0.1875 0.2296397 -0.2296396
v -0.5625 0.2296397 -0.2296396
v -0.75 7.727156E-09 5.409008E-08
v -0.5625 -0.2296396 0.2296397
v -0.1875 -0.2296396 0.2296398
v -0.625 0.7654657 0.7654656
v -0.71875 0.8802854 0.421006
v -0.90625 0.6506457 0.1913664
v -1 0.3061862 0.3061863
v -0.90625 0.1913664 0.6506457
v -0.71875 0.4210061 0.8802854
v -1.875 0.7654657 0.7654656
v -1.78125 0.8802854 0.421006
v -1.59375 0.6506457 0.1913664
v -1.5 0.3061862 0.3061863
v -1.59375 0.1913664 0.6506457
v -1.78125 0.4210061 0.8802854

vt 0 0
vt 0 0.06495191
vt -0.03750001 0
vt -0.1125 0
vt 0 -0.06495191
vt 0.1125 0
vt 0.03750001 0
vt -0.2165063 0
vt -0.1840304 0.06495191
vt -0.14375 -0.1840304
vt -0.18125 -0.1190785
vt 0.1190785 0.0649519
vt 0.08660253 -6.556709E-09
vt 0.1190785 -0.06495191
vt 0.18125 -0.1190785
vt 0.14375 -0.1840304
vt -0.1840304 -0.06495191
vt -0.125 0
vt -0.14375 0.06495191
vt 0.18125 0.0649519
vt 0.2 -6.556709E-09
vt 0.18125 -0.06495191
vt -0.14375 -0.06495191
vt -0.375 0
vt -0.35625 0.06495191
vt -0.35625 -0.1840304
vt -0.31875 -0.1190785
vt 0.31875 0.0649519
vt 0.3 -6.556709E-09
vt 0.31875 -0.06495191
vt 0.31875 -0.1190785
vt 0.35625 -0.1840304
vt -0.35625 -0.06495191
vt 0.2165063 0
vt 0.1840304 0.06495191
vt -0.1190785 0.0649519
vt -0.08660253 -6.556709E-09
vt -0.1190785 -0.06495191
vt 0.1840304 -0.06495191
vt -0.4625 1.857734E-08
vt -0.3875 1.202063E-08
vt 0.3875 1.202063E-08
vt 0.4625 1.857734E-08
vt -0.35625 0.1840304
vt -0.31875 0.1190785
vt 0.31875 0.1190785
vt 0.35625 0.1840304
vt 0.375 0
vt 0.35625 0.06495191
vt -0.31875 0.0649519
vt -0.3 -6.556709E-09
vt -0.31875 -0.06495191
vt 0.35625 -0.06495191
vt 0.125 0
vt 0.14375 0.06495191
vt -0.14375 0.1840304
vt -0.18125 0.1190785
vt -0.18125 0.0649519
vt -0.2 -6.556709E-09
vt -0.18125 -0.06495191
vt 0.18125 0.1190785
vt 0.14375 0.1840304
vt 0.14375 -0.06495191

vn -0.7745967 -6.155941E-08 -0.6324555
vn 8.42937E-08 0.7071068 -0.7071068
vn 0.7745967 0.6324555 1.865437E-08
vn 0.7745966 5.129952E-08 0.6324556
vn 0 -0.7071068 0.7071068
vn -0.7745967 -0.6324555 -5.311007E-08
vn 0 -0.3162278 -0.9486833
vn 0 0.9486833 0.3162278
vn 0 0.3162278 0.9486833
vn 0 -0.9486833 -0.3162279
vn 0.7745968 4.246971E-08 -0.6324555
vn -0.7745967 0.6324555 -2.782699E-07
vn -0.7745966 -2.010522E-07 0.6324556
vn 0.7745968 -0.6324554 -1.763026E-08

usemtl Mat_GenericSmooth_Yellow
f 2/2/1 8/9/1 7/8/1 1/1/1
f 3/4/2 9/11/2 8/10/2 2/3/2
f 4/1/3 10/13/3 9/12/3 3/2/3
f 5/5/4 11/14/4 10/13/4 4/1/4
f 6/7/5 12/16/5 11/15/5 5/6/5
f 1/1/6 7/8/6 12/17/6 6/5/6
f 8/19/7 14/25/7 13/24/7 7/18/7
f 9/11/2 15/27/2 14/26/2 8/10/2
f 10/21/8 16/29/8 15/28/8 9/20/8
f 11/22/9 17/30/9 16/29/9 10/21/9
f 12/16/5 18/32/5 17/31/5 11/15/5
f 7/18/10 13/24/10 18/33/10 12/23/10
f 14/35/11 20/2/11 19/1/11 13/34/11
f 15/27/2 21/41/2 20/40/2 14/26/2
f 16/37/12 22/1/12 21/2/12 15/36/12
f 17/38/13 23/5/13 22/1/13 16/37/13
f 18/32/5 24/43/5 23/42/5 17/31/5
f 13/34/14 19/1/14 24/5/14 18/39/14
f 20/2/3 26/9/3 25/8/3 19/1/3
f 21/41/2 27/45/2 26/44/2 20/40/2
f 22/1/1 28/13/1 27/12/1 21/2/1
f 23/5/6 29/14/6 28/13/6 22/1/6
f 24/43/5 30/47/5 29/46/5 23/42/5
f 19/1/4 25/8/4 30/17/4 24/5/4
f 26/49/8 32/55/8 31/54/8 25/48/8
f 27/45/2 33/57/2 32/56/2 26/44/2
f 28/51/7 34/59/7 33/58/7 27/50/7
f 29/52/10 35/60/10 34/59/10 28/51/10
f 30/47/5 36/62/5 35/61/5 29/46/5
f 25/48/9 31/54/9 36/63/9 30/53/9
f 32/35/12 2/2/12 1/1/12 31/34/12
f 33/57/2 3/4/2 2/3/2 32/56/2
f 34/37/11 4/1/11 3/2/11 33/36/11
f 35/38/14 5/5/14 4/1/14 34/37/14
f 36/62/5 6/7/5 5/6/5 35/61/5
f 31/34/13 1/1/13 6/5/13 36/39/13

