# ProBuilder 6.0.8
# https://unity3d.com/unity/features/worldbuilding/probuilder
# 31/1/2569 19:28:34

mtllib ./Altar.mtl
o Altar

g Altar
v -0.3658018 -0.5743306 -0.3780693
v 0.3155153 -0.5743306 -0.3780693
v -0.02514327 -1.598998 -0.37807
v 0.3155153 -0.5743312 0.38807
v -0.02514327 -1.598999 0.3880693
v -0.3658018 -0.5743312 0.38807

vt -0.3797798 -0.8918533
vt 0.3772392 -0.8918533
vt -0.001270294 0.246666
vt -0.4256332 -0.9653198
vt 0.4256327 -0.9653198
vt -0.4256332 0.23447
vt 0.4256327 0.23447
vt -0.3772392 -0.8918533
vt 0.3797798 -0.8918533
vt 0.001270294 0.246666
vt -0.4256327 -0.9661213
vt 0.4256332 -0.9661213
vt -0.4256327 0.2336685
vt 0.4256332 0.2336685
vt -0.3797798 0.4256332
vt 0.3772392 0.4256332
vt -0.3797798 -0.4256327
vt 0.3772392 -0.4256327

vn 0 6.437301E-07 -0.9
vn 0.854039 -0.2839319 -2.030839E-07
vn 0 -6.437301E-07 0.9
vn -0.854039 -0.2839319 -2.030839E-07
vn 0 0.9 6.437301E-07

usemtl Mat_Grey
f 1/1/1 2/2/1 3/3/1
f 4/8/3 6/9/3 5/10/3
f 3/6/2 2/4/2 4/5/2
f 4/5/2 5/7/2 3/6/2
f 5/13/4 6/11/4 1/12/4
f 1/12/4 3/14/4 5/13/4
f 4/18/5 2/16/5 1/15/5
f 1/15/5 6/17/5 4/18/5

g Arch (2)
v -0.5080009 -0.5802261 0.1073589
v -0.4080009 -0.5802261 0.107359
v -0.5080009 -0.1802261 0.1073589
v -0.4080009 -0.1802261 0.107359
v -0.4125097 -0.1802261 0.3731135
v -0.4125097 -0.5802261 0.3731136
v -0.331608 -0.1802261 0.3113103
v -0.331608 -0.5802261 0.3113103
v -0.1625099 -0.180226 0.5373592
v -0.1625099 -0.5802261 0.5373593
v -0.1316081 -0.180226 0.4373593
v -0.1316081 -0.5802261 0.4373593
v 0.1465071 -0.180226 0.5373596
v 0.1465071 -0.5802261 0.5373597
v 0.1156055 -0.180226 0.4373595
v 0.1156055 -0.5802261 0.4373596
v 0.3965073 -0.180226 0.3731144
v 0.3965073 -0.5802261 0.3731145
v 0.3156057 -0.1802261 0.311311
v 0.3156057 -0.5802261 0.311311
v 0.4919991 -0.1802261 0.1073599
v 0.4919991 -0.5802261 0.10736
v 0.3919991 -0.1802261 0.1073598
v 0.3919991 -0.5802261 0.1073599

vt -0.4999999 -0.2947739
vt -0.3999999 -0.2947739
vt -0.4999999 -0.6947739
vt -0.3999999 -0.6947739
vt -0.6947739 -0.2948449
vt -0.6947739 -0.01245485
vt -0.2947739 -0.2948449
vt -0.2947739 -0.01245485
vt 0.6947739 -0.04766699
vt 0.6947739 -0.2654559
vt 0.2947739 -0.04766699
vt 0.2947739 -0.2654559
vt 0.2655331 -0.6947739
vt -0.03359324 -0.6947739
vt 0.2655331 -0.2947739
vt -0.03359324 -0.2947739
vt 0.0001250516 -0.6947739
vt -0.236282 -0.6947739
vt 0.0001250516 -0.2947739
vt -0.236282 -0.2947739
vt 0.1545084 -0.6947739
vt -0.1545086 -0.6947739
vt 0.1545084 -0.2947739
vt -0.1545086 -0.2947739
vt 0.1236069 -0.6947739
vt -0.1236067 -0.6947739
vt 0.1236069 -0.2947739
vt -0.1236067 -0.2947739
vt 0.03359311 -0.6947739
vt -0.2655333 -0.6947739
vt 0.03359311 -0.2947739
vt -0.2655333 -0.2947739
vt 0.2362822 -0.6947739
vt 0.2362822 -0.2947739
vt 0.6947739 -0.01245493
vt 0.6947739 -0.294845
vt 0.2947739 -0.01245493
vt 0.2947739 -0.294845
vt -0.6947739 -0.265456
vt -0.6947739 -0.04766709
vt -0.2947739 -0.265456
vt -0.2947739 -0.04766709
vt 0.4000001 -0.2947739
vt 0.5000002 -0.2947739
vt 0.4000001 -0.6947739
vt 0.5000002 -0.6947739
vt -0.4999999 -0.1336402
vt -0.4045084 0.1321144
vt -0.3999999 -0.1336402
vt -0.3236067 0.07031099
vt 0.4045084 0.1321144
vt 0.4999999 -0.1336402
vt 0.3236067 0.07031099
vt 0.3999999 -0.1336402
vt -0.1545084 0.2963597
vt -0.1236067 0.1963598
vt 0.1545084 0.2963597
vt 0.1236067 0.1963598
vt 0.5000001 -0.1336403
vt 0.4000001 -0.1336402
vt -0.5000001 -0.1336403
vt -0.4000001 -0.1336402

vn 1.129837E-06 -1.192092E-07 -1
vn -0.9410909 2.812816E-08 0.3381537
vn -0.785532 6.36001E-08 0.6188211
vn 0.775423 -6.52355E-08 -0.6314421
vn 0.9364631 -2.969159E-08 -0.3507661
vn -0.2865605 1.105002E-07 0.9580622
vn 0.2774912 -1.109354E-07 -0.9607283
vn 0.2865584 1.179196E-07 0.9580629
vn -0.2774891 -1.1812E-07 -0.9607289
vn 0.7855306 8.393848E-08 0.6188229
vn -0.5331844 -1.077532E-07 -0.8459992
vn 0.9410902 5.249416E-08 0.3381557
vn -0.9364623 -5.393777E-08 -0.3507682
vn 1.294563E-08 -1 1.192092E-07
vn -1.294563E-08 1 -1.192092E-07

usemtl Mat_DarkGrey
f 9/21/6 10/22/6 8/20/6 7/19/6
f 7/25/7 12/26/8 11/24/8 9/23/7
f 14/29/9 8/30/10 10/28/10 13/27/9
f 12/33/8 16/34/11 15/32/11 11/31/8
f 18/37/12 14/38/9 13/36/9 17/35/12
f 16/41/11 20/42/13 19/40/13 15/39/11
f 22/45/14 18/46/12 17/44/12 21/43/14
f 20/49/13 24/50/15 23/48/15 19/47/13
f 26/52/16 22/37/14 21/35/14 25/51/16
f 24/55/15 28/56/17 27/54/17 23/53/15
f 30/59/18 26/60/18 25/58/18 29/57/18
f 29/63/6 27/64/6 28/62/6 30/61/6
f 8/67/19 14/68/19 12/66/19 7/65/19
f 13/71/20 10/72/20 9/70/20 11/69/20
f 14/68/19 18/74/19 16/73/19 12/66/19
f 17/76/20 13/71/20 11/69/20 15/75/20
f 18/74/19 22/76/19 20/75/19 16/73/19
f 21/74/20 17/76/20 15/75/20 19/73/20
f 22/76/19 26/71/19 24/69/19 20/75/19
f 25/68/20 21/74/20 19/73/20 23/66/20
f 26/71/19 30/78/19 28/77/19 24/69/19
f 29/80/20 25/68/20 23/66/20 27/79/20

g Arch (3)
v 0.4919988 -0.580226 -0.09835991
v 0.3919987 -0.580226 -0.09835994
v 0.4919987 -0.180226 -0.09835982
v 0.3919987 -0.180226 -0.09835985
v 0.3965073 -0.1802258 -0.3641144
v 0.3965073 -0.5802259 -0.3641145
v 0.3156056 -0.1802259 -0.3023111
v 0.3156056 -0.5802259 -0.3023112
v 0.1465073 -0.1802258 -0.5283599
v 0.1465073 -0.5802258 -0.52836
v 0.1156056 -0.1802258 -0.4283599
v 0.1156056 -0.5802259 -0.42836
v -0.1625097 -0.1802258 -0.52836
v -0.1625097 -0.5802258 -0.5283601
v -0.131608 -0.1802258 -0.42836
v -0.131608 -0.5802259 -0.4283601
v -0.4125098 -0.1802259 -0.3641146
v -0.4125098 -0.5802259 -0.3641147
v -0.3316081 -0.1802259 -0.3023112
v -0.3316081 -0.5802259 -0.3023113
v -0.5080014 -0.180226 -0.09836003
v -0.5080014 -0.5802261 -0.09836013
v -0.4080014 -0.180226 -0.09836003
v -0.4080014 -0.5802261 -0.09836013

vt -0.4999999 -0.2947739
vt -0.3999999 -0.2947739
vt -0.4999999 -0.6947739
vt -0.3999999 -0.6947739
vt -0.6947739 -0.2948449
vt -0.6947739 -0.01245485
vt -0.2947739 -0.2948449
vt -0.2947739 -0.01245485
vt 0.6947739 -0.04766699
vt 0.6947739 -0.2654559
vt 0.2947739 -0.04766699
vt 0.2947739 -0.2654559
vt 0.2655331 -0.6947739
vt -0.03359324 -0.6947739
vt 0.2655331 -0.2947739
vt -0.03359324 -0.2947739
vt 0.0001250516 -0.6947739
vt -0.236282 -0.6947739
vt 0.0001250516 -0.2947739
vt -0.236282 -0.2947739
vt 0.1545084 -0.6947739
vt -0.1545086 -0.6947739
vt 0.1545084 -0.2947739
vt -0.1545086 -0.2947739
vt 0.1236069 -0.6947739
vt -0.1236067 -0.6947739
vt 0.1236069 -0.2947739
vt -0.1236067 -0.2947739
vt 0.03359311 -0.6947739
vt -0.2655333 -0.6947739
vt 0.03359311 -0.2947739
vt -0.2655333 -0.2947739
vt 0.2362822 -0.6947739
vt 0.2362822 -0.2947739
vt 0.6947739 -0.01245493
vt 0.6947739 -0.294845
vt 0.2947739 -0.01245493
vt 0.2947739 -0.294845
vt -0.6947739 -0.265456
vt -0.6947739 -0.04766709
vt -0.2947739 -0.265456
vt -0.2947739 -0.04766709
vt 0.4000001 -0.2947739
vt 0.5000002 -0.2947739
vt 0.4000001 -0.6947739
vt 0.5000002 -0.6947739
vt -0.4999999 -0.1336402
vt -0.4045084 0.1321144
vt -0.3999999 -0.1336402
vt -0.3236067 0.07031099
vt 0.4045084 0.1321144
vt 0.4999999 -0.1336402
vt 0.3236067 0.07031099
vt 0.3999999 -0.1336402
vt -0.1545084 0.2963597
vt -0.1236067 0.1963598
vt 0.1545084 0.2963597
vt 0.1236067 0.1963598
vt 0.5000001 -0.1336403
vt 0.4000001 -0.1336402
vt -0.5000001 -0.1336403
vt -0.4000001 -0.1336402

vn -2.735371E-07 -5.364419E-07 1
vn 0.9410908 2.412891E-07 -0.3381545
vn 0.7855315 3.819513E-07 -0.6188218
vn -0.7754226 -3.880785E-07 0.6314428
vn -0.9364629 -2.477605E-07 0.3507669
vn 0.2865598 5.321808E-07 -0.9580625
vn -0.2774904 -5.330338E-07 0.9607285
vn -0.2865593 4.957088E-07 -0.9580626
vn 0.2774899 -4.977161E-07 0.9607286
vn -0.7855313 2.819726E-07 -0.6188222
vn 0.5331852 -4.198983E-07 0.8459987
vn -0.9410906 1.215115E-07 -0.3381549
vn 0.9364627 -1.285719E-07 0.3507674
vn 6.363776E-08 -1 -2.384186E-07
vn -6.363776E-08 1 2.384186E-07

usemtl Mat_DarkGrey
f 33/83/21 34/84/21 32/82/21 31/81/21
f 31/87/22 36/88/23 35/86/23 33/85/22
f 38/91/24 32/92/25 34/90/25 37/89/24
f 36/95/23 40/96/26 39/94/26 35/93/23
f 42/99/27 38/100/24 37/98/24 41/97/27
f 40/103/26 44/104/28 43/102/28 39/101/26
f 46/107/29 42/108/27 41/106/27 45/105/29
f 44/111/28 48/112/30 47/110/30 43/109/28
f 50/114/31 46/99/29 45/97/29 49/113/31
f 48/117/30 52/118/32 51/116/32 47/115/30
f 54/121/33 50/122/33 49/120/33 53/119/33
f 53/125/21 51/126/21 52/124/21 54/123/21
f 32/129/34 38/130/34 36/128/34 31/127/34
f 37/133/35 34/134/35 33/132/35 35/131/35
f 38/130/34 42/136/34 40/135/34 36/128/34
f 41/138/35 37/133/35 35/131/35 39/137/35
f 42/136/34 46/138/34 44/137/34 40/135/34
f 45/136/35 41/138/35 39/137/35 43/135/35
f 46/138/34 50/133/34 48/131/34 44/137/34
f 49/130/35 45/136/35 43/135/35 47/128/35
f 50/133/34 54/140/34 52/139/34 48/131/34
f 53/142/35 49/130/35 47/128/35 51/141/35

